<?xml version="1.0" standalone="no"?>
<!DOCTYPE svg PUBLIC "-//W3C//DTD SVG 20010904//EN"
 "http://www.w3.org/TR/2001/REC-SVG-20010904/DTD/svg10.dtd">
<svg version="1.0" xmlns="http://www.w3.org/2000/svg"
 width="567.000000pt" height="567.000000pt" viewBox="0 0 567.000000 567.000000"
 preserveAspectRatio="xMidYMid meet">
<metadata>
Created by potrace 1.14, written by Peter Selinger 2001-2017
</metadata>
<g transform="translate(0.000000,567.000000) scale(0.100000,-0.100000)"
fill="#000000" stroke="none">
<path d="M272 5548 c-7 -7 -12 -9 -12 -5 0 12 -59 -22 -90 -52 -16 -15 -38
-49 -50 -75 -20 -47 -20 -54 -20 -2575 0 -2200 2 -2529 15 -2548 8 -11 11 -23
8 -27 -3 -3 -1 -6 5 -6 7 0 12 -6 12 -13 0 -19 59 -67 109 -88 42 -19 121 -19
2596 -17 2415 3 2554 4 2572 20 11 10 24 18 29 18 13 0 50 43 78 89 l21 36 2
2533 c3 2528 3 2533 -17 2578 -28 59 -75 106 -130 127 -43 16 -213 17 -2581
17 -1958 0 -2538 -3 -2547 -12z"/>
</g>
</svg>
